<?xml version="1.0" standalone="no"?>
<!DOCTYPE svg PUBLIC "-//W3C//DTD SVG 20010904//EN"
 "http://www.w3.org/TR/2001/REC-SVG-20010904/DTD/svg10.dtd">
<svg version="1.0" xmlns="http://www.w3.org/2000/svg"
 width="1181.000000pt" height="1181.000000pt" viewBox="0 0 1181.000000 1181.000000"
 preserveAspectRatio="xMidYMid meet">
<metadata>
Created by potrace 1.14, written by Peter Selinger 2001-2017
</metadata>
<g transform="translate(0.000000,1181.000000) scale(0.100000,-0.100000)"
fill="#000000" stroke="none">
<path d="M3281 9014 c67 -20 141 -91 181 -172 l33 -67 0 -1525 0 -1525 -27
-57 c-35 -74 -101 -145 -163 -174 l-50 -24 695 1 c506 0 687 3 665 11 -75 27
-137 87 -186 178 l-24 45 -3 633 c-2 409 1 646 8 671 27 101 132 211 217 227
43 8 42 20 -1 28 -78 15 -190 133 -216 226 -6 21 -10 281 -10 652 0 686 -3
657 68 761 38 55 80 86 147 109 48 17 26 17 -665 17 -635 0 -710 -2 -669 -15z"/>
<path d="M4933 9019 c76 -18 148 -83 195 -176 39 -76 43 -152 40 -754 l-3
-574 -32 -67 c-46 -97 -149 -187 -215 -188 -32 0 -19 -17 17 -23 68 -11 146
-81 193 -174 39 -76 43 -152 40 -754 l-3 -574 -27 -57 c-47 -101 -112 -167
-193 -196 -22 -8 161 -11 670 -11 607 0 695 2 661 14 -79 28 -159 114 -195
210 -21 55 -21 67 -21 1006 l0 950 34 14 c30 13 133 38 196 48 14 2 -33 5
-103 6 l-128 1 3 528 3 527 26 55 c46 98 117 164 198 186 38 10 -87 13 -674
12 -448 0 -706 -3 -682 -9z"/>
<path d="M6450 6083 c0 -1811 4 -1686 -65 -1790 -35 -52 -96 -101 -150 -121
-22 -8 159 -11 664 -11 l695 -1 -51 25 c-64 32 -127 99 -161 173 l-27 57 -3
1653 -2 1652 -450 0 -450 0 0 -1637z"/>
<path d="M7583 7700 c242 -53 473 -216 627 -445 65 -97 155 -281 191 -394 l28
-86 0 473 1 472 -467 -1 -468 0 88 -19z"/>
<path d="M4268 3641 c-16 -13 -19 -24 -14 -44 9 -37 51 -47 79 -19 42 42 -18
100 -65 63z"/>
<path d="M4450 3618 l-35 -10 3 -177 c3 -236 8 -278 37 -307 13 -13 35 -24 49
-24 26 0 66 41 66 68 0 13 -3 12 -14 -4 -12 -15 -18 -17 -33 -8 -16 10 -18 32
-21 243 -1 127 -6 230 -10 230 -4 -1 -23 -6 -42 -11z"/>
<path d="M6220 3620 c-8 -5 -25 -10 -38 -10 -20 0 -21 -3 -15 -27 10 -35 10
-397 1 -440 l-7 -33 55 0 c53 0 56 1 50 23 -14 59 -17 213 -4 252 28 84 133
111 187 49 22 -27 23 -32 19 -176 l-3 -148 51 0 52 0 -9 38 c-5 20 -9 82 -9
137 -1 132 -19 177 -86 206 -68 31 -127 20 -176 -32 l-38 -40 0 106 c0 58 -3
105 -7 105 -5 0 -15 -5 -23 -10z"/>
<path d="M3308 3558 c9 -69 9 -340 0 -400 l-8 -48 60 0 60 0 -8 63 c-4 34 -7
112 -7 172 l0 110 33 3 c36 4 84 -21 81 -41 -3 -26 2 -47 11 -47 6 0 10 16 10
35 0 40 20 55 74 55 l36 0 0 -143 c0 -78 -4 -157 -9 -175 l-10 -32 64 0 65 0
-8 33 c-9 42 -9 392 0 435 l8 33 -63 -3 c-48 -2 -61 -6 -59 -18 2 -8 6 -36 9
-62 l6 -48 -40 0 c-26 0 -47 -7 -62 -21 l-22 -21 -23 21 c-15 14 -35 21 -61
21 l-38 0 6 65 6 65 -59 0 -59 0 7 -52z"/>
<path d="M5711 3553 l1 -58 12 35 c15 42 46 60 104 60 l43 0 -3 -222 c-2 -123
-7 -231 -12 -240 -7 -16 -1 -18 59 -18 60 0 66 2 59 18 -5 9 -10 117 -12 240
l-3 222 43 0 c58 0 91 -19 105 -60 l12 -35 0 58 1 57 -205 0 -205 0 1 -57z"/>
<path d="M3906 3500 c-68 -22 -88 -81 -40 -119 31 -24 43 -26 78 -9 28 12 42
41 30 60 -5 7 -10 4 -16 -11 -6 -18 -14 -22 -40 -19 -28 3 -33 7 -36 33 -4 35
18 55 64 55 52 0 80 -31 98 -110 9 -38 16 -71 16 -73 0 -2 -21 6 -47 19 -56
29 -85 30 -140 5 -71 -33 -93 -108 -50 -172 53 -79 198 -73 241 10 l14 25 15
-36 c15 -36 42 -58 70 -58 22 0 54 32 62 60 5 21 4 22 -5 8 -14 -23 -47 -23
-59 0 -5 9 -18 69 -30 132 -20 115 -35 147 -82 182 -29 21 -103 31 -143 18z
m135 -209 c37 -37 38 -79 3 -120 -21 -26 -33 -31 -69 -31 -77 0 -119 58 -90
126 16 40 39 53 88 54 29 0 45 -7 68 -29z"/>
<path d="M4293 3491 c-40 -14 -41 -16 -35 -50 9 -47 9 -212 0 -278 l-7 -53 56
0 c49 0 54 2 48 18 -5 9 -11 98 -14 197 l-6 180 -42 -14z"/>
<path d="M4765 3501 c-147 -36 -210 -192 -126 -309 81 -111 306 -120 351 -12
35 86 -61 159 -125 95 -26 -25 -33 -59 -15 -70 6 -3 10 3 10 14 0 14 9 23 27
27 37 10 57 -7 61 -48 4 -49 -32 -78 -97 -78 -89 0 -171 80 -171 164 l0 31
103 0 c112 0 168 14 192 48 59 85 -72 171 -210 138z m140 -36 c14 -13 25 -36
25 -50 0 -54 -65 -85 -182 -85 -62 0 -68 2 -68 20 0 35 39 100 73 120 48 29
121 27 152 -5z"/>
<path d="M6746 3496 c-59 -22 -88 -47 -113 -96 -27 -52 -30 -124 -8 -177 20
-48 41 -71 87 -94 145 -74 308 17 308 171 0 54 -19 112 -48 143 -48 53 -157
78 -226 53z m130 -25 c62 -38 91 -156 60 -249 -22 -64 -53 -93 -108 -99 -89
-9 -143 60 -143 182 0 113 51 185 130 185 17 0 44 -9 61 -19z"/>
<path d="M7120 3494 c-14 -7 -33 -14 -43 -14 -15 0 -16 -3 -6 -21 7 -14 10
-76 8 -185 l-4 -164 45 0 45 0 -3 143 c-3 128 -1 145 17 174 38 60 127 52 151
-13 13 -32 13 -229 1 -272 l-10 -32 54 0 55 0 -8 33 c-4 17 -7 82 -7 144 0 98
3 115 21 140 44 59 115 55 147 -7 15 -30 18 -53 14 -155 -2 -66 -8 -128 -12
-137 -6 -16 -1 -18 48 -18 l55 0 -9 38 c-5 20 -9 82 -9 137 -1 145 -32 204
-116 221 -45 9 -100 -18 -126 -61 l-21 -37 -13 30 c-35 84 -176 93 -219 13
-14 -26 -14 -26 -15 17 0 45 -2 47 -40 26z"/>
<path d="M7820 3492 c-67 -33 -70 -97 -7 -123 41 -17 81 4 84 46 2 28 2 28 -7
8 -12 -30 -65 -32 -80 -3 -28 53 60 95 117 55 12 -8 26 -30 32 -48 14 -42 30
-127 24 -127 -3 0 -16 9 -30 20 -53 41 -147 34 -194 -16 -32 -34 -34 -120 -4
-154 24 -27 74 -50 109 -50 44 0 104 30 125 63 l20 31 6 -27 c8 -31 49 -67 76
-67 24 0 59 35 58 58 0 10 -3 12 -6 5 -2 -7 -13 -13 -23 -13 -29 0 -37 19 -59
139 -25 135 -42 168 -101 199 -53 27 -93 28 -140 4z m131 -182 c10 -6 26 -24
35 -41 33 -65 -13 -129 -91 -129 -36 0 -48 5 -70 32 -22 26 -26 39 -21 67 10
66 87 102 147 71z"/>
<path d="M8270 3499 c-64 -19 -98 -67 -80 -114 10 -27 57 -54 143 -81 76 -23
107 -52 107 -98 0 -51 -45 -86 -110 -86 -60 0 -94 15 -109 46 -30 68 64 118
97 51 11 -21 11 -20 9 8 -3 40 -53 67 -100 54 -40 -11 -55 -27 -63 -66 -14
-68 94 -123 211 -108 98 12 157 71 140 141 -12 48 -46 72 -156 110 -90 31
-118 58 -99 93 15 29 42 41 94 41 38 0 52 -6 85 -35 l39 -35 5 26 c4 22 0 28
-29 40 -46 19 -141 26 -184 13z"/>
<path d="M5030 3491 c0 -6 4 -12 9 -16 9 -5 62 -136 115 -287 23 -64 32 -77
51 -80 l24 -3 -24 -59 c-29 -72 -60 -106 -95 -106 -47 0 -78 58 -48 88 20 20
54 14 66 -10 l11 -23 0 23 c1 29 -33 62 -64 62 -67 0 -99 -94 -49 -141 30 -28
100 -33 128 -10 27 23 58 91 125 275 63 171 102 259 121 271 20 12 10 25 -20
25 -24 0 -30 -4 -30 -22 0 -24 -87 -288 -99 -301 -10 -10 -101 259 -101 297 0
25 -2 26 -60 26 -33 0 -60 -4 -60 -9z"/>
</g>
</svg>
